<?xml version="1.0" encoding="UTF-8" standalone="no"?>
<!DOCTYPE svg PUBLIC "-//W3C//DTD SVG 1.1//EN"
 "http://www.w3.org/Graphics/SVG/1.1/DTD/svg11.dtd">
<!-- Generated by graphviz version 2.28.0 (20121123.2207)
 -->
<!-- Title: _anonymous_0 Pages: 1 -->
<svg width="74pt" height="116pt"
 viewBox="0.00 0.00 74.00 116.00" xmlns="http://www.w3.org/2000/svg" xmlns:xlink="http://www.w3.org/1999/xlink">
<g id="graph1" class="graph" transform="scale(1 1) rotate(0) translate(4 112)">
<title>_anonymous_0</title>
<polygon fill="white" stroke="white" points="-4,5 -4,-112 71,-112 71,5 -4,5"/>
<!-- Tick! -->
<g id="node1" class="node"><title>Tick!</title>
<ellipse fill="none" stroke="black" cx="33" cy="-90" rx="31.1008" ry="18"/>
<text text-anchor="middle" x="33" y="-84.4" font-family="Helvetica,sans-Serif" font-size="14.00">Tick!</text>
</g>
<!-- Tock! -->
<g id="node3" class="node"><title>Tock!</title>
<ellipse fill="none" stroke="black" cx="33" cy="-18" rx="33.363" ry="18"/>
<text text-anchor="middle" x="33" y="-12.4" font-family="Helvetica,sans-Serif" font-size="14.00">Tock!</text>
</g>
<!-- Tick!&#45;&gt;Tock! -->
<g id="edge2" class="edge"><title>Tick!&#45;&gt;Tock!</title>
<path fill="none" stroke="black" d="M27.1218,-72.055C26.2915,-64.2306 26.0543,-54.7484 26.4102,-45.9768"/>
<polygon fill="black" stroke="black" points="29.9164,-46.0131 27.1384,-35.789 22.9342,-45.514 29.9164,-46.0131"/>
</g>
<!-- Tock!&#45;&gt;Tick! -->
<g id="edge4" class="edge"><title>Tock!&#45;&gt;Tick!</title>
<path fill="none" stroke="black" d="M38.8616,-35.789C39.6998,-43.5912 39.9449,-53.067 39.5969,-61.8479"/>
<polygon fill="black" stroke="black" points="36.0893,-61.8338 38.8782,-72.055 43.072,-62.3255 36.0893,-61.8338"/>
</g>
</g>
</svg>
