<?xml version="1.0" encoding="UTF-8" standalone="no"?>
<!DOCTYPE svg PUBLIC "-//W3C//DTD SVG 1.1//EN"
 "http://www.w3.org/Graphics/SVG/1.1/DTD/svg11.dtd">
<!-- Generated by graphviz version 2.29.20121111.0545 (20121111.0545)
 -->
<!-- Title: %227 Pages: 1 -->
<svg width="208pt" height="134pt"
 viewBox="0.00 0.00 208.16 134.00" xmlns="http://www.w3.org/2000/svg" xmlns:xlink="http://www.w3.org/1999/xlink">
<g id="graph0" class="graph" transform="scale(1 1) rotate(0) translate(4 130)">
<title>%227</title>
<!-- <polygon fill="white" stroke="white" points="-4,5 -4,-130 205.155,-130 205.155,5 -4,5"/> -->
<!-- Not Dragging -->
<g id="node1" class="node"><title>Not Dragging</title>
<ellipse fill="none" stroke="black" cx="64" cy="-108" rx="64.114" ry="18"/>
<text text-anchor="middle" x="64" y="-102.4" font-family="Times,serif" font-size="14.00">Not Dragging</text>
</g>
<!-- Dragging -->
<g id="node2" class="node"><title>Dragging</title>
<ellipse fill="none" stroke="black" cx="64" cy="-18" rx="47.264" ry="18"/>
<text text-anchor="middle" x="64" y="-12.4" font-family="Times,serif" font-size="14.00">Dragging</text>
</g>
<!-- Not Dragging&#45;&gt;Dragging -->
<g id="edge1" class="edge"><title>Not Dragging&#45;&gt;Dragging</title>
<path fill="none" stroke="black" d="M33.4738,-91.9715C26.0311,-86.7389 19.0151,-80.1016 14.8379,-72 11.1717,-64.8895 11.1717,-61.1105 14.8379,-54 17.8628,-48.1333 22.3762,-43.0345 27.4624,-38.6808"/>
<polygon fill="black" stroke="black" points="29.8825,-41.2415 35.7947,-32.4496 25.6902,-35.6357 29.8825,-41.2415"/>
<text text-anchor="middle" x="54.0811" y="-57.4" font-family="Times,serif" font-size="14.00"> mousedown &#160;</text>
</g>
<!-- Dragging&#45;&gt;Dragging -->
<g id="edge2" class="edge"><title>Dragging&#45;&gt;Dragging</title>
<path fill="none" stroke="black" d="M106.199,-26.2374C118.996,-26.031 129,-23.2852 129,-18 129,-14.2013 123.832,-11.7144 116.173,-10.5394"/>
<polygon fill="black" stroke="black" points="116.441,-7.04968 106.199,-9.76259 115.897,-14.0285 116.441,-7.04968"/>
<text text-anchor="middle" x="164.578" y="-12.4" font-family="Times,serif" font-size="14.00"> mousemove</text>
</g>
<!-- Dragging&#45;&gt;Not Dragging -->
<g id="edge3" class="edge"><title>Dragging&#45;&gt;Not Dragging</title>
<path fill="none" stroke="black" d="M81.1196,-34.9253C85.9065,-40.4493 90.4846,-47.0218 93,-54 95.7128,-61.526 95.7128,-64.474 93,-72 91.7206,-75.5494 89.9075,-78.9939 87.8047,-82.2488"/>
<polygon fill="black" stroke="black" points="84.9207,-80.261 81.7295,-90.3638 90.5244,-84.4562 84.9207,-80.261"/>
<text text-anchor="middle" x="122.026" y="-57.4" font-family="Times,serif" font-size="14.00"> mouseup</text>
</g>
</g>
</svg>
