<?xml version="1.0" encoding="UTF-8" standalone="no"?>
<!DOCTYPE svg PUBLIC "-//W3C//DTD SVG 1.1//EN"
 "http://www.w3.org/Graphics/SVG/1.1/DTD/svg11.dtd">
<!-- Generated by graphviz version 2.28.0 (20121123.2207)
 -->
<!-- Title: _anonymous_0 Pages: 1 -->
<svg width="227pt" height="134pt"
 viewBox="0.00 0.00 227.03 134.00" xmlns="http://www.w3.org/2000/svg" xmlns:xlink="http://www.w3.org/1999/xlink">
<g id="graph1" class="graph" transform="scale(1 1) rotate(0) translate(4 130)">
<title>_anonymous_0</title>
<polygon fill="white" stroke="white" points="-4,5 -4,-130 224.034,-130 224.034,5 -4,5"/>
<!-- Not Dragging -->
<g id="node1" class="node"><title>Not Dragging</title>
<ellipse fill="none" stroke="black" cx="67" cy="-108" rx="67.4046" ry="18"/>
<text text-anchor="middle" x="67" y="-102.4" font-family="Helvetica,sans-Serif" font-size="14.00">Not Dragging</text>
</g>
<!-- Dragging -->
<g id="node3" class="node"><title>Dragging</title>
<ellipse fill="none" stroke="black" cx="67" cy="-18" rx="50.3386" ry="18"/>
<text text-anchor="middle" x="67" y="-12.4" font-family="Helvetica,sans-Serif" font-size="14.00">Dragging</text>
</g>
<!-- Not Dragging&#45;&gt;Dragging -->
<g id="edge2" class="edge"><title>Not Dragging&#45;&gt;Dragging</title>
<path fill="none" stroke="black" d="M31.7154,-92.4283C23.4484,-87.2513 15.6808,-80.5279 10.9521,-72 3.58413,-58.7123 13.7549,-46.7927 27.366,-37.6384"/>
<polygon fill="black" stroke="black" points="29.4219,-40.485 36.1593,-32.3083 25.7934,-34.4988 29.4219,-40.485"/>
<text text-anchor="middle" x="56.5239" y="-57.4" font-family="Helvetica,sans-Serif" font-size="14.00"> &#160;mousedown &#160;</text>
</g>
<!-- Dragging&#45;&gt;Not Dragging -->
<g id="edge6" class="edge"><title>Dragging&#45;&gt;Not Dragging</title>
<path fill="none" stroke="black" d="M87.9632,-34.6954C93.6034,-40.1214 98.9746,-46.696 102,-54 105.061,-61.391 105.061,-64.609 102,-72 100.372,-75.9299 98.0653,-79.6486 95.4028,-83.0909"/>
<polygon fill="black" stroke="black" points="92.7536,-80.8028 88.6972,-90.5904 97.9718,-85.4687 92.7536,-80.8028"/>
<text text-anchor="middle" x="136.686" y="-57.4" font-family="Helvetica,sans-Serif" font-size="14.00"> &#160;mouseup</text>
</g>
<!-- Dragging&#45;&gt;Dragging -->
<g id="edge4" class="edge"><title>Dragging&#45;&gt;Dragging</title>
<path fill="none" stroke="black" d="M111.797,-26.2253C124.872,-25.941 135,-23.1992 135,-18 135,-14.2631 129.768,-11.7956 121.97,-10.5977"/>
<polygon fill="black" stroke="black" points="122.047,-7.09261 111.797,-9.77467 121.483,-14.0698 122.047,-7.09261"/>
<text text-anchor="middle" x="177.017" y="-12.4" font-family="Helvetica,sans-Serif" font-size="14.00"> &#160;mousemove</text>
</g>
</g>
</svg>
